<svg width="21" height="20" viewBox="0 0 21 20" fill="none" xmlns="http://www.w3.org/2000/svg">
<path d="M19 14V18C19 18.2652 18.8946 18.5196 18.7071 18.7071C18.5196 18.8946 18.2652 19 18 19H3C2.46957 19 1.96086 18.7893 1.58579 18.4142C1.21071 18.0391 1 17.5304 1 17V3C1 2.46957 1.21071 1.96086 1.58579 1.58579C1.96086 1.21071 2.46957 1 3 1H16C16.2652 1 16.5196 1.10536 16.7071 1.29289C16.8946 1.48043 17 1.73478 17 2V5M1 3C1 3.53043 1.21071 4.03914 1.58579 4.41421C1.96086 4.78929 2.46957 5 3 5H18C18.2652 5 18.5196 5.10536 18.7071 5.29289C18.8946 5.48043 19 5.73478 19 6V10M19 10H16C15.4696 10 14.9609 10.2107 14.5858 10.5858C14.2107 10.9609 14 11.4696 14 12C14 12.5304 14.2107 13.0391 14.5858 13.4142C14.9609 13.7893 15.4696 14 16 14H19M19 10C19.2652 10 19.5196 10.1054 19.7071 10.2929C19.8946 10.4804 20 10.7348 20 11V13C20 13.2652 19.8946 13.5196 19.7071 13.7071C19.5196 13.8946 19.2652 14 19 14" stroke="black" stroke-width="2" stroke-linecap="round"/>
</svg>
